<?xml version="1.0" encoding="UTF-8"?>
<svg width="245px" height="64px" viewBox="0 0 245 64" version="1.1" xmlns="http://www.w3.org/2000/svg" xmlns:xlink="http://www.w3.org/1999/xlink">
    <!-- Generator: Sketch 39.1 (31720) - http://www.bohemiancoding.com/sketch -->
    <title>Page 1</title>
    <desc>Created with Sketch.</desc>
    <defs></defs>
    <g id="page" stroke="none" stroke-width="1" fill="none" fill-rule="evenodd">
        <g id="业务后台管理-00登录" transform="translate(-597.000000, -141.000000)" fill="#BBBBBB">
            <g id="Page-1" transform="translate(597.000000, 141.000000)">
                <path d="M93.1152284,44.709504 L95.8098579,44.709504 L95.8098579,53.517824 C95.8098579,54.745344 96.1402045,55.649024 96.8002574,56.229504 C97.4449455,56.810624 98.4968049,57.100544 99.9551954,57.100544 C101.383496,57.100544 102.435356,56.810624 103.110774,56.229504 C103.770827,55.623424 104.101173,54.719104 104.101173,53.517824 L104.101173,44.709504 L106.795803,44.709504 L106.795803,53.478144 C106.795803,55.313024 106.196569,56.717824 104.999383,57.694464 C103.801556,58.644864 102.120374,59.119744 99.9551954,59.119744 C97.775292,59.119744 96.1011519,58.651904 94.9353357,57.714304 C93.7221443,56.724864 93.1152284,55.313024 93.1152284,53.478144 L93.1152284,44.709504 L93.1152284,44.709504 Z" id="Fill-1"></path>
                <path d="M131.716868,45.461504 C132.867959,46.200704 133.528012,47.341824 133.697027,48.886144 L131.026085,48.886144 C130.79561,48.015104 130.373074,47.388544 129.759116,47.005824 C129.175248,46.623104 128.269355,46.431744 127.041439,46.431744 C125.997262,46.431744 125.205967,46.557184 124.669474,46.807424 C123.993416,47.098624 123.655386,47.586944 123.655386,48.272384 C123.655386,48.893184 124.03951,49.374464 124.807118,49.717504 C125.175877,49.889664 126.111859,50.179584 127.616985,50.588544 C129.782163,51.156224 131.217506,51.617664 131.923654,51.974144 C133.351315,52.699904 134.065785,53.716224 134.065785,55.022464 C134.065785,56.289664 133.49024,57.291904 132.338508,58.031104 C131.171412,58.756864 129.544007,59.119744 127.455653,59.119744 C125.429399,59.119744 123.847448,58.783744 122.711722,58.110464 C121.314151,57.279104 120.561908,55.965824 120.454354,54.171264 L123.125936,54.171264 C123.310315,55.253504 123.755259,56.018944 124.462047,56.467584 C125.1221,56.876544 126.120182,57.081344 127.455653,57.081344 C128.653479,57.081344 129.604826,56.909824 130.311614,56.566144 C131.017762,56.197504 131.371156,55.728384 131.371156,55.160704 C131.371156,54.408704 130.85643,53.814784 129.828258,53.379584 C129.459499,53.221504 128.392275,52.911744 126.627225,52.449024 C124.584966,51.894784 123.32568,51.499264 122.849366,51.261184 C121.59072,50.615424 120.961397,49.665024 120.961397,48.410624 C120.961397,47.144064 121.575355,46.161664 122.803272,45.461504 C123.940278,44.775424 125.398029,44.432384 127.179724,44.432384 C129.129153,44.432384 130.641961,44.775424 131.716868,45.461504" id="Fill-3"></path>
                <path d="M141.987638,50.806272 C141.511964,51.215232 141.1893,51.828992 141.020285,52.646912 L147.147062,52.646912 C146.915948,50.997632 145.880093,50.172672 144.037579,50.172672 C143.162417,50.172672 142.478676,50.383872 141.987638,50.806272 M148.459486,50.034432 C149.411473,51.076992 149.887146,52.515072 149.887146,54.349312 L140.974191,54.349312 C141.06638,55.312512 141.365997,56.038912 141.8724,56.526592 C142.379444,57.028352 143.108639,57.279232 144.060626,57.279232 C144.858964,57.279232 145.511334,57.120512 146.017738,56.803712 C146.401862,56.553472 146.755256,56.137472 147.07728,55.556992 L149.703407,55.556992 C149.426838,56.520832 148.873699,57.318912 148.045272,57.951872 C146.969725,58.730752 145.649619,59.119872 144.083674,59.119872 C142.317344,59.119872 140.912731,58.652032 139.868554,57.714432 C138.763557,56.737792 138.210419,55.405312 138.210419,53.716352 C138.210419,52.185472 138.732187,50.911872 139.777004,49.895552 C140.790451,48.853632 142.187382,48.331392 143.968437,48.331392 C145.933871,48.331392 147.430674,48.899712 148.459486,50.034432" id="Fill-5"></path>
                <path d="M165.80838,47.955648 C164.917852,48.893248 164.472909,50.172608 164.472909,51.795648 C164.472909,53.406528 164.917852,54.679488 165.80838,55.615808 C166.729637,56.592448 168.050383,57.080768 169.769978,57.080768 C171.474208,57.080768 172.786631,56.612928 173.707888,55.675968 C174.613781,54.739008 175.067047,53.445568 175.067047,51.795648 C175.067047,50.146368 174.613781,48.840128 173.707888,47.876288 C172.801996,46.939968 171.488932,46.471488 169.769978,46.471488 C168.081113,46.471488 166.760367,46.966208 165.80838,47.955648 M175.711735,46.531008 C177.093301,47.850688 177.784724,49.605568 177.784724,51.795648 C177.784724,53.960128 177.093301,55.708608 175.711735,57.041088 C174.268709,58.427328 172.28727,59.119808 169.769978,59.119808 C167.251405,59.119808 165.271246,58.420288 163.828221,57.021888 C162.46138,55.688768 161.778279,53.947328 161.778279,51.795648 C161.778279,49.631808 162.46138,47.883328 163.828221,46.550208 C165.239876,45.138368 167.221315,44.432448 169.769978,44.432448 C172.28727,44.432448 174.268709,45.131968 175.711735,46.531008" id="Fill-7"></path>
                <path d="M192.086618,52.528384 L192.086618,58.842624 L189.461131,58.842624 L189.461131,52.726144 C189.461131,51.050624 188.562921,50.212224 186.766502,50.212224 C186.121814,50.212224 185.553951,50.409984 185.062272,50.806144 C184.509774,51.241344 184.18711,51.868544 184.09556,52.687104 L184.09556,58.842624 L181.469433,58.842624 L181.469433,48.609024 L184.09556,48.609024 L184.09556,49.796864 C184.570593,49.308544 185.093002,48.945024 185.660865,48.708224 C186.244733,48.457344 186.897104,48.331904 187.618617,48.331904 C190.597498,48.331904 192.086618,49.730944 192.086618,52.528384" id="Fill-9"></path>
                <polygon id="Fill-11" points="200.644004 44.709504 203.315586 44.709504 203.315586 56.863744 212.206134 56.863744 212.206134 58.842624 200.644004 58.842624"></polygon>
                <path d="M214.508893,58.842752 L217.13438,58.842752 L217.13438,48.609152 L214.508893,48.609152 L214.508893,58.842752 Z M217.111333,44.847872 C217.448722,45.138432 217.617736,45.494912 217.617736,45.917312 C217.617736,46.365952 217.441039,46.728192 217.087645,47.005952 C216.750256,47.283072 216.32772,47.421312 215.821957,47.421312 C215.329638,47.421312 214.907742,47.283072 214.554988,47.005952 C214.216959,46.715392 214.047944,46.352512 214.047944,45.917312 C214.047944,45.481472 214.216959,45.124992 214.554988,44.847872 C214.907742,44.571392 215.329638,44.432512 215.821957,44.432512 C216.343085,44.432512 216.773304,44.571392 217.111333,44.847872 L217.111333,44.847872 Z" id="Fill-13"></path>
                <path d="M230.998182,52.528384 L230.998182,58.842624 L228.372694,58.842624 L228.372694,52.726144 C228.372694,51.050624 227.474485,50.212224 225.678065,50.212224 C225.033377,50.212224 224.465514,50.409984 223.973835,50.806144 C223.421337,51.241344 223.098673,51.868544 223.007123,52.687104 L223.007123,58.842624 L220.380996,58.842624 L220.380996,48.609024 L223.007123,48.609024 L223.007123,49.796864 C223.482156,49.308544 224.004565,48.945024 224.572428,48.708224 C225.156297,48.457344 225.808667,48.331904 226.53018,48.331904 C229.509061,48.331904 230.998182,49.730944 230.998182,52.528384" id="Fill-15"></path>
                <path d="M236.848389,50.806272 C236.372716,51.215232 236.050052,51.828992 235.881037,52.646912 L242.007814,52.646912 C241.776699,50.997632 240.740845,50.172672 238.898331,50.172672 C238.023168,50.172672 237.339428,50.383872 236.848389,50.806272 M243.320237,50.034432 C244.272225,51.076992 244.747898,52.515072 244.747898,54.349312 L235.834942,54.349312 C235.927132,55.312512 236.226749,56.038912 236.733152,56.526592 C237.240196,57.028352 237.969391,57.279232 238.921378,57.279232 C239.719716,57.279232 240.372086,57.120512 240.87849,56.803712 C241.262613,56.553472 241.616008,56.137472 241.938031,55.556992 L244.564159,55.556992 C244.28759,56.520832 243.734451,57.318912 242.906024,57.951872 C241.830477,58.730752 240.510371,59.119872 238.944425,59.119872 C237.178096,59.119872 235.773482,58.652032 234.729305,57.714432 C233.624309,56.737792 233.07117,55.405312 233.07117,53.716352 C233.07117,52.185472 233.592939,50.911872 234.637756,49.895552 C235.651203,48.853632 237.048134,48.331392 238.829188,48.331392 C240.794622,48.331392 242.291425,48.899712 243.320237,50.034432" id="Fill-16"></path>
                <path d="M126.412884,18.156864 C126.448096,17.519424 127.066535,16.902464 127.704181,16.872384 L131.936586,16.872384 L131.936586,22.318144 L126.412884,22.318144 L126.412884,18.156864 Z M149.624214,13.066304 L151.816281,9.785664 C151.896947,9.617984 151.953285,9.436864 151.953285,9.238464 L151.953285,7.052224 C151.953285,6.401344 151.47313,5.868224 150.848929,5.773504 L130.039014,5.773504 C130.249642,5.119424 130.372562,4.440384 130.372562,3.739584 C130.372562,3.726144 130.369361,3.713344 130.369361,3.700544 L122.838611,3.700544 C122.15423,6.938944 120.285467,9.462464 117.928867,10.318144 L117.928867,12.622784 C118.011453,12.624064 118.092119,12.632384 118.174706,12.632384 C121.841169,12.632384 125.120947,11.447104 127.356549,9.580864 L143.295772,9.580864 L140.854024,13.068224 L121.59597,13.073344 C120.10877,13.073344 118.903261,14.278464 118.903261,15.765184 L118.903261,16.872384 L118.903261,22.318144 L118.903261,26.125504 L118.903261,30.153664 L118.903261,31.262144 C118.903261,32.604864 120.246415,33.947584 121.589568,33.947584 L126.412884,33.960384 L152.172876,33.960384 L153.509627,30.153664 L127.708022,30.153664 C127.069096,30.126144 126.448096,29.516224 126.412884,28.878144 L126.412884,26.125504 L143.045451,26.125504 L144.19014,22.318144 L139.44621,22.318144 L139.44621,16.872384 L143.640203,16.875584 C144.266325,16.875584 144.884124,17.457344 144.969272,18.080064 L144.969272,22.318144 L144.969272,26.119744 L152.478895,26.119744 L152.478895,16.872384 L152.478895,14.969024 L152.478895,14.372544 C152.478895,13.655744 151.897587,13.074624 151.180556,13.074624 L149.624214,13.066304 Z" id="Fill-17"></path>
                <polygon id="Fill-18" points="187.717209 29.95584 187.717209 22.0928 193.772282 22.0928 195.19162 18.19968 187.717209 18.19968 187.717209 12.35968 180.207586 12.35968 180.207586 18.19968 172.421393 18.19968 172.421393 22.0928 180.207586 22.0928 180.207586 29.95584 172.421393 29.95584 172.421393 33.84832 196.21211 33.84832 196.21211 29.95584"></polygon>
                <path d="M176.211288,10.266496 L196.117231,10.266496 L196.117231,6.374016 L178.29452,6.374016 C178.619745,5.490816 178.871987,4.584576 179.026917,3.654016 L170.108839,3.654016 C169.877725,4.590336 169.551859,5.498496 169.140207,6.374016 L160.291271,6.374016 L160.291271,10.266496 L166.554412,10.266496 C164.705496,12.359936 162.296398,14.114176 159.494854,15.380096 L159.494854,19.620736 C160.808558,19.431296 162.082569,19.157376 163.312406,18.811136 L163.312406,33.960576 L170.822029,33.960576 L170.822029,15.393536 C172.989128,13.949056 174.817558,12.215296 176.211288,10.266496" id="Fill-19"></path>
                <path d="M101.497389,18.682816 L86.3212923,18.682816 L86.3212923,16.966976 C86.3212923,16.250176 86.9025999,15.669056 87.6196312,15.669056 L100.362943,15.669056 C101.001869,15.750336 101.497389,16.289856 101.497389,16.950336 L101.497389,18.682816 Z M110.999335,9.580736 L110.999335,5.944896 L93.6017214,5.944896 C93.8526824,5.196736 94.0626701,4.435776 94.1926321,3.654336 L85.2751948,3.654336 C85.0812122,4.438976 84.8136058,5.202496 84.4922222,5.944896 L74.3219006,5.944896 L74.3219006,9.580736 L82.2982342,9.580736 C80.3872176,11.979456 77.7636511,13.978176 74.6612101,15.379776 L74.6612101,19.621056 C75.9992418,19.427776 77.2956601,19.145536 78.5466238,18.789696 L78.5466238,34.084416 L86.3212923,34.084416 L86.3212923,28.967616 L99.3725434,28.967616 L100.718258,25.332416 L86.3212923,25.332416 L86.3212923,22.318656 L101.497389,22.318656 L101.497389,25.332416 L101.497389,30.200256 C101.497389,30.896576 100.948092,31.459776 100.25923,31.492416 L99.0319535,31.492416 L99.0319535,34.084416 L101.497389,34.084416 L105.384723,34.084416 L106.585111,34.084416 C107.928904,34.084416 109.272058,32.741696 109.272058,31.398976 L109.272058,22.318656 L109.272058,18.682816 L109.272058,15.669056 L109.272058,14.725056 C109.272058,13.238336 108.066549,12.033216 106.579349,12.033216 L89.9480625,12.033216 C90.659332,11.257536 91.2937767,10.437696 91.8475554,9.580736 L110.999335,9.580736 Z" id="Fill-20"></path>
                <polygon id="Fill-21" points="203.049644 33.424448 215.385144 32.126528 216.3032 27.974208 203.049644 29.272128"></polygon>
                <path d="M238.158252,30.6128 C237.46939,30.6096 236.986034,30.2096 236.82022,29.66688 L236.812538,29.6688 L236.864394,29.816 L235.706261,26.66848 C236.776046,26.25504 238.021248,25.75712 239.678742,25.1184 L239.57951,20.14624 C239.57951,20.14624 237.281169,21.048 234.059649,22.19168 L233.021875,19.37248 L239.601277,18.98528 L239.601277,14.8304 L231.525712,15.30528 L230.379102,12.1904 L239.078229,11.6592 L239.078229,7.85184 L237.348391,7.95744 L237.348391,5.18112 L231.898312,5.18112 L231.898312,8.29088 L229.00906,8.46688 L227.169746,3.46784 L220.651803,3.46784 L222.635163,8.85664 L218.111464,9.13312 L218.111464,12.93984 L224.005205,12.58016 L225.146053,15.68096 L217.825291,16.11168 L217.825291,20.26656 L226.642216,19.74752 L228.261298,24.14816 C224.532095,25.33344 220.623634,26.41376 217.803524,26.77728 L217.803524,30.6128 C223.986639,29.58368 227.426469,28.99744 229.849651,28.46432 L231.443765,32.79712 C231.631986,33.3072 232.144792,33.66048 232.76131,33.66048 L238.279251,33.66048 L238.806141,33.66048 L240.026375,30.6128 L238.158252,30.6128 Z" id="Fill-22"></path>
                <path d="M217.073945,13.66592 L211.414519,13.66592 C211.191727,14.09792 210.959972,14.5152 210.723736,14.92288 L208.862655,14.92288 C212.855624,10.6592 214.525282,3.6704 214.525282,3.6704 L207.608491,3.6704 C207.071998,7.69216 204.547023,12.36544 203.505407,14.16 L203.54638,14.10368 C203.233959,14.62144 203.057902,14.92224 203.04958,15.14688 L203.04958,18.55872 L208.267263,18.55872 C206.262136,21.13728 204.332554,22.85696 203.498365,23.552 C203.213473,23.79392 203.057902,24.10368 203.04958,24.39424 L203.04958,27.5296 L215.38508,26.23168 L216.303136,22.59584 L210.703249,23.14432 C215.674453,18.9376 217.073945,13.66592 217.073945,13.66592" id="Fill-23"></path>
                <path d="M32.2618656,18.783808 C29.6709496,17.885888 26.8399561,17.300288 25.5448183,16.349248 C24.2490402,15.398208 23.6024315,14.183488 23.6024315,12.703168 C23.6024315,9.322048 25.5057657,7.630528 29.3111535,7.630528 C30.0512323,7.630528 30.8175596,7.841728 31.6107755,8.264128 C32.4033512,8.687808 33.2522651,9.139008 33.8707047,9.889088 C35.4302479,11.780288 35.7945254,13.839808 36.0064338,14.684608 L39.4929988,14.817728 L39.0173253,7.816768 C36.8489456,6.548288 33.0640444,5.648448 29.786827,5.648448 C28.2535322,5.648448 26.8137077,5.846848 25.4660729,6.243008 C24.1177978,6.639168 22.9410981,7.208128 21.9372542,7.947328 C20.9321299,8.687808 20.1395542,9.585728 19.5582466,10.642368 C18.9762989,11.700288 18.3540181,13.257408 18.3540181,14.954688 C18.3540181,16.776128 18.580011,18.580928 20.2989656,20.494528 C21.6984572,22.052288 24.7106291,23.832768 28.252892,25.101248 C33.220895,26.844608 35.9718626,28.133568 35.9718626,31.092928 C35.9718626,32.664768 35.5973418,33.835968 34.5704505,34.836288 C35.3796716,35.414848 36.2087391,36.896448 36.2919659,37.042368 C36.5967042,36.854848 36.7241054,36.751168 36.9232096,36.591808 C37.9801906,35.747648 38.9661088,35.023168 40.0851898,32.969408 C40.7356397,31.777088 41.130007,29.816128 41.130007,28.282688 C41.130007,24.501568 38.2349929,20.951488 32.2618656,18.783808 M29.628696,36.720448 C27.6190875,36.720448 25.7157534,35.888448 23.9193338,34.223808 C22.1216337,32.559168 21.8553078,30.182848 21.1158692,27.329088 L17.4903794,27.446848 L18.2835954,36.349888 C20.7669566,37.724608 25.1088376,38.875968 28.9148656,38.875968 C30.2836273,38.875968 31.4180733,38.747968 32.4308801,38.536128 C32.39951,38.111808 32.0077036,37.048768 31.466729,36.532288 C30.8546915,36.683968 30.3374046,36.720448 29.628696,36.720448" id="Fill-24"></path>
                <path d="M23.0659384,41.635136 L36.9680241,41.635136 C36.9014426,40.554176 36.6805713,39.158976 36.3047701,38.242496 C35.9276884,37.325376 35.4116819,36.280896 34.7561104,35.642176 C34.0998986,35.003456 32.5896513,33.470016 29.0480286,33.470016 C27.2586512,33.470016 25.9968041,33.780416 24.8162632,34.335296 C25.2599263,34.712256 25.9174185,35.328576 26.5653075,35.692096 C27.2964234,35.286976 27.9731218,35.147456 28.9494368,35.147456 C30.1946386,35.147456 31.1203773,35.391936 31.7272931,36.079936 C32.3335687,36.767936 32.7349782,37.538496 32.9315216,38.389696 C33.0301135,38.815936 33.0544413,39.143616 33.0057856,39.372736 C32.9564897,39.602496 32.8169247,39.774656 32.5870905,39.888576 C32.3578966,40.003776 32.0627613,40.069056 31.702325,40.085696 C31.3412485,40.102336 30.9161514,40.110016 30.4244727,40.110016 L23.2957726,40.110016 C23.4052479,39.585216 23.5204851,39.198016 23.7176687,38.767296 C22.6760526,38.664896 21.1382764,38.257856 20.3636265,38.035136 C19.6504364,39.134016 18.797041,40.769856 18.797041,43.608256 C18.797041,45.982016 19.4628559,47.934656 21.2304662,49.903296 C22.2375111,51.024576 23.5262469,51.757376 24.598593,52.173376 C26.8469984,53.045056 30.5384295,53.220416 33.0544413,51.804736 C34.023714,51.259456 34.937929,50.531136 35.7740388,49.662016 C36.5237207,48.954176 36.9136065,48.330176 36.9136065,48.330176 L36.6908146,46.465216 C35.1043827,48.671296 32.362378,49.938496 29.4744062,49.515456 C26.2676115,49.045696 23.8329059,46.631616 23.1959004,43.654336 C23.0787426,43.047616 23.0307271,42.419136 23.0601766,41.778496 C23.0486528,41.733696 23.042891,41.687616 23.0505735,41.638976 L23.0659384,41.638976 L23.0659384,41.635136" id="Fill-25"></path>
                <path d="M24.6030104,34.448256 C24.6046139,34.449056 24.6054156,34.450656 24.6062173,34.451456 C24.619847,34.443456 24.6334766,34.436256 24.6471062,34.429056 C24.6326749,34.435456 24.6174417,34.441856 24.6030104,34.448256" id="Fill-26"></path>
                <path d="M60.6076516,0.375552 C57.8854933,-0.692608 54.9078925,0.580352 53.5512948,3.398272 L53.548734,3.398272 C53.3707565,3.748992 52.5634561,5.584512 52.5634561,9.999232 C52.5634561,13.460352 52.3496271,30.254592 52.3496271,39.437952 C52.3496271,47.270272 46.8003165,51.033472 46.8003165,51.033472 C46.8003165,51.033472 51.3400213,46.898432 51.3400213,39.510912 L51.3400213,3.372672 L51.3381007,3.372672 C51.3284976,2.995712 51.0205582,2.692352 50.6409157,2.692352 C50.2670351,2.692352 49.9635772,2.987392 49.9456514,3.356672 L49.9392493,3.356672 L49.9392493,40.006272 C49.9392493,47.236992 45.6421828,50.424832 45.6421828,50.424832 C45.6421828,50.424832 49.0557643,46.885632 49.0557643,40.193152 C49.0557643,32.002432 48.7817559,14.959872 48.7817559,9.999232 C48.7817559,5.037952 47.8067213,3.332352 47.8067213,3.332352 C47.2996777,2.242432 46.7202907,1.502592 45.4437188,0.954752 C42.9411513,-0.118528 39.8771227,2.667392 41.6645794,5.069952 C42.5531862,4.283392 43.6031249,4.370432 44.1690675,4.671872 C44.4827688,4.838912 47.065362,5.648512 47.065362,11.705472 L47.065362,39.280512 C47.065362,49.497472 38.7804488,57.779712 28.5601912,57.779712 C18.3405737,57.779712 10.0556605,49.497472 10.0556605,39.280512 L10.0556605,11.621632 C10.0646234,11.574912 10.0723059,11.527552 10.0723059,11.477632 C10.0723059,6.307072 13.1324933,4.684672 13.1324933,4.684672 L13.1324933,3.398272 L-6.40206568e-05,3.398272 L-6.40206568e-05,4.684672 C-6.40206568e-05,4.684672 2.85589748,6.611072 2.85589748,11.477632 C2.85589748,11.541632 2.86550058,11.603072 2.88086554,11.662592 L2.88086554,38.287232 C2.88086554,52.442752 14.4007425,63.959552 28.5608314,63.959552 C42.7215605,63.959552 54.2414375,52.442752 54.2414375,38.287232 L54.2414375,12.325632 C54.2414375,8.893312 55.6134001,5.004032 57.3470795,4.884992 C56.7401637,2.259072 58.1902316,0.698112 60.1806338,1.151232 C61.6358233,1.483392 63.5481204,2.987392 63.0218706,4.658432 C62.3093206,3.823872 61.1799963,4.758272 61.8675781,5.402752 C63.6800029,7.101312 64.9040779,2.064512 60.6076516,0.375552" id="Fill-27"></path>
            </g>
        </g>
    </g>
</svg>